<svg width="100" height="100" viewBox="0 0 100 100" fill="none" xmlns="http://www.w3.org/2000/svg">
<path d="M72.9166 27.0834H72.9583M29.1666 8.33337H70.8332C82.3392 8.33337 91.6666 17.6608 91.6666 29.1667V70.8334C91.6666 82.3393 82.3392 91.6667 70.8332 91.6667H29.1666C17.6607 91.6667 8.33325 82.3393 8.33325 70.8334V29.1667C8.33325 17.6608 17.6607 8.33337 29.1666 8.33337ZM66.6666 47.375C67.1808 50.8427 66.5885 54.3843 64.9739 57.4959C63.3593 60.6076 60.8047 63.1309 57.6734 64.707C54.542 66.2831 50.9934 66.8317 47.5324 66.2748C44.0713 65.7178 40.8739 64.0837 38.3951 61.6049C35.9162 59.126 34.2821 55.9287 33.7252 52.4676C33.1683 49.0065 33.7169 45.4579 35.2929 42.3266C36.869 39.1953 39.3924 36.6406 42.504 35.026C45.6157 33.4115 49.1572 32.8192 52.6249 33.3334C56.1621 33.8579 59.4368 35.5061 61.9653 38.0346C64.4938 40.5632 66.1421 43.8379 66.6666 47.375Z" stroke="black" stroke-width="4" stroke-linecap="round" stroke-linejoin="round"/>
</svg>
