<svg width="100" height="100" viewBox="0 0 100 100" fill="none" xmlns="http://www.w3.org/2000/svg">
<path d="M91.6667 25C91.6667 20.4166 87.9167 16.6666 83.3334 16.6666H16.6667C12.0834 16.6666 8.33337 20.4166 8.33337 25M91.6667 25V75C91.6667 79.5833 87.9167 83.3333 83.3334 83.3333H16.6667C12.0834 83.3333 8.33337 79.5833 8.33337 75V25M91.6667 25L50 54.1666L8.33337 25" stroke="white" stroke-width="4" stroke-linecap="round" stroke-linejoin="round"/>
<path d="M91.6667 25C91.6667 20.4166 87.9167 16.6666 83.3334 16.6666H16.6667C12.0834 16.6666 8.33337 20.4166 8.33337 25M91.6667 25V75C91.6667 79.5833 87.9167 83.3333 83.3334 83.3333H16.6667C12.0834 83.3333 8.33337 79.5833 8.33337 75V25M91.6667 25L50 54.1666L8.33337 25" stroke="black" stroke-width="4" stroke-linecap="round" stroke-linejoin="round"/>
</svg>
