<svg width="104" height="104" viewBox="0 0 104 104" fill="none" xmlns="http://www.w3.org/2000/svg">
<path d="M101.997 76.8692V91.9232C102.003 93.3208 101.716 94.7041 101.155 95.9846C100.594 97.265 99.771 98.4145 98.7392 99.3593C97.7073 100.304 96.4891 101.023 95.1626 101.471C93.8361 101.919 92.4305 102.085 91.0359 101.959C75.564 100.281 60.7022 95.005 47.6445 86.554C35.4961 78.8496 25.1963 68.5703 17.4767 56.4459C8.9793 43.3549 3.69121 28.4504 2.04081 12.9398C1.91516 11.5521 2.08041 10.1536 2.52601 8.83313C2.97162 7.51271 3.68783 6.29936 4.62904 5.27033C5.57025 4.24129 6.71584 3.41913 7.99288 2.85617C9.26991 2.29321 10.6504 2.0018 12.0465 2.00049H27.1304C29.5705 1.97652 31.9361 2.83889 33.7862 4.42686C35.6364 6.01483 36.8448 8.22004 37.1863 10.6315C37.823 15.4491 39.0037 20.1794 40.7059 24.7321C41.3824 26.5281 41.5288 28.4801 41.1278 30.3567C40.7268 32.2332 39.7952 33.9557 38.4433 35.3201L32.0578 41.693C39.2154 54.2558 49.6379 64.6576 62.2256 71.801L68.6112 65.4282C69.9782 64.079 71.7041 63.1492 73.5844 62.749C75.4647 62.3488 77.4206 62.4949 79.2202 63.17C83.7819 64.8689 88.5216 66.0473 93.3488 66.6827C95.7912 67.0265 98.0218 68.2543 99.6163 70.1325C101.211 72.0107 102.058 74.4083 101.997 76.8692Z" stroke="black" stroke-width="4" stroke-linecap="round" stroke-linejoin="round"/>
</svg>
