<svg width="100" height="100" viewBox="0 0 100 100" fill="none" xmlns="http://www.w3.org/2000/svg">
<path d="M66.6666 33.3334C73.297 33.3334 79.6558 35.9673 84.3443 40.6557C89.0327 45.3441 91.6666 51.703 91.6666 58.3334V87.5H74.9999V58.3334C74.9999 56.1232 74.1219 54.0036 72.5591 52.4408C70.9963 50.878 68.8767 50 66.6666 50C64.4564 50 62.3368 50.878 60.774 52.4408C59.2112 54.0036 58.3333 56.1232 58.3333 58.3334V87.5H41.6666V58.3334C41.6666 51.703 44.3005 45.3441 48.9889 40.6557C53.6773 35.9673 60.0362 33.3334 66.6666 33.3334Z" stroke="black" stroke-width="2" stroke-linecap="round" stroke-linejoin="round"/>
<path d="M24.9999 37.5H8.33325V87.5H24.9999V37.5Z" stroke="black" stroke-width="2" stroke-linecap="round" stroke-linejoin="round"/>
<path d="M16.6666 25C21.269 25 24.9999 21.2691 24.9999 16.6667C24.9999 12.0643 21.269 8.33337 16.6666 8.33337C12.0642 8.33337 8.33325 12.0643 8.33325 16.6667C8.33325 21.2691 12.0642 25 16.6666 25Z" stroke="black" stroke-width="2" stroke-linecap="round" stroke-linejoin="round"/>
</svg>
