<svg width="329" height="329" viewBox="0 0 329 329" fill="none" xmlns="http://www.w3.org/2000/svg">
<path d="M84.75 26.3689L324 164.5L84.75 302.631V26.3689Z" stroke="#E15735" stroke-width="5"/>
<g filter="url(#filter0_d_744_513)">
<path d="M109 82.48C106.973 82.48 105.28 82.12 103.92 81.4C102.56 80.68 101.533 79.5733 100.84 78.08C100.147 76.56 99.76 74.6 99.68 72.2L105.8 71.28C105.827 72.6667 105.947 73.7867 106.16 74.64C106.4 75.4933 106.72 76.1067 107.12 76.48C107.547 76.8533 108.053 77.04 108.64 77.04C109.387 77.04 109.867 76.7867 110.08 76.28C110.32 75.7733 110.44 75.24 110.44 74.68C110.44 73.3467 110.12 72.2267 109.48 71.32C108.84 70.3867 107.973 69.4533 106.88 68.52L104.08 66.08C102.853 65.04 101.813 63.8667 100.96 62.56C100.133 61.2267 99.72 59.5867 99.72 57.64C99.72 54.8933 100.533 52.8 102.16 51.36C103.787 49.8933 106 49.16 108.8 49.16C110.533 49.16 111.92 49.4533 112.96 50.04C114.027 50.6267 114.827 51.4 115.36 52.36C115.92 53.2933 116.293 54.2933 116.48 55.36C116.693 56.4 116.813 57.4 116.84 58.36L110.68 59.12C110.653 58.16 110.587 57.3333 110.48 56.64C110.4 55.92 110.213 55.3733 109.92 55C109.627 54.6 109.173 54.4 108.56 54.4C107.893 54.4 107.4 54.68 107.08 55.24C106.787 55.8 106.64 56.36 106.64 56.92C106.64 58.12 106.92 59.1067 107.48 59.88C108.067 60.6267 108.827 61.4133 109.76 62.24L112.44 64.6C113.853 65.8 115.04 67.16 116 68.68C116.987 70.2 117.48 72.08 117.48 74.32C117.48 75.84 117.133 77.2267 116.44 78.48C115.747 79.7067 114.76 80.68 113.48 81.4C112.227 82.12 110.733 82.48 109 82.48ZM121.067 82V49.6H128.227V62.72H133.267V49.6H140.427V82H133.267V67.84H128.227V82H121.067ZM154.641 82.48C152.214 82.48 150.294 82.0533 148.881 81.2C147.468 80.3467 146.454 79.12 145.841 77.52C145.228 75.92 144.921 74.0133 144.921 71.8V59.76C144.921 57.52 145.228 55.6133 145.841 54.04C146.454 52.4667 147.468 51.2667 148.881 50.44C150.294 49.5867 152.214 49.16 154.641 49.16C157.094 49.16 159.028 49.5867 160.441 50.44C161.881 51.2667 162.908 52.4667 163.521 54.04C164.134 55.6133 164.441 57.52 164.441 59.76V71.8C164.441 74.0133 164.134 75.92 163.521 77.52C162.908 79.12 161.881 80.3467 160.441 81.2C159.028 82.0533 157.094 82.48 154.641 82.48ZM154.641 77.4C155.388 77.4 155.934 77.2133 156.281 76.84C156.628 76.4667 156.854 75.9867 156.961 75.4C157.068 74.8133 157.121 74.2133 157.121 73.6V58C157.121 57.36 157.068 56.76 156.961 56.2C156.854 55.6133 156.628 55.1333 156.281 54.76C155.934 54.3867 155.388 54.2 154.641 54.2C153.948 54.2 153.428 54.3867 153.081 54.76C152.734 55.1333 152.508 55.6133 152.401 56.2C152.294 56.76 152.241 57.36 152.241 58V73.6C152.241 74.2133 152.281 74.8133 152.361 75.4C152.468 75.9867 152.681 76.4667 153.001 76.84C153.348 77.2133 153.894 77.4 154.641 77.4ZM171.398 82L167.478 49.6H173.558L175.478 68.48L177.918 49.64H182.678L185.238 68.36L187.198 49.6H193.198L189.318 82H183.078L180.318 62.44L177.718 82H171.398ZM196.689 82V49.6H205.609C207.796 49.6 209.689 49.84 211.289 50.32C212.889 50.8 214.129 51.6667 215.009 52.92C215.916 54.1467 216.369 55.8933 216.369 58.16C216.369 59.4933 216.262 60.68 216.049 61.72C215.836 62.76 215.436 63.6667 214.849 64.44C214.289 65.1867 213.476 65.8133 212.409 66.32L216.849 82H209.449L205.889 67.48H203.849V82H196.689ZM203.849 63.36H205.849C206.862 63.36 207.649 63.1867 208.209 62.84C208.769 62.4667 209.156 61.9467 209.369 61.28C209.609 60.5867 209.729 59.76 209.729 58.8C209.729 57.4133 209.476 56.3333 208.969 55.56C208.462 54.7867 207.529 54.4 206.169 54.4H203.849V63.36ZM220.673 82V49.6H235.233V54.48H227.833V62.52H233.473V67.48H227.833V77.16H235.313V82H220.673ZM238.564 82V49.6H253.124V54.48H245.724V62.52H251.364V67.48H245.724V77.16H253.204V82H238.564ZM256.455 82V49.6H263.615V77.16H271.055V82H256.455Z" fill="white"/>
</g>
<defs>
<filter id="filter0_d_744_513" x="95.6799" y="49.16" width="179.375" height="41.3199" filterUnits="userSpaceOnUse" color-interpolation-filters="sRGB">
<feFlood flood-opacity="0" result="BackgroundImageFix"/>
<feColorMatrix in="SourceAlpha" type="matrix" values="0 0 0 0 0 0 0 0 0 0 0 0 0 0 0 0 0 0 127 0" result="hardAlpha"/>
<feOffset dy="4"/>
<feGaussianBlur stdDeviation="2"/>
<feComposite in2="hardAlpha" operator="out"/>
<feColorMatrix type="matrix" values="0 0 0 0 0 0 0 0 0 0 0 0 0 0 0 0 0 0 0.25 0"/>
<feBlend mode="normal" in2="BackgroundImageFix" result="effect1_dropShadow_744_513"/>
<feBlend mode="normal" in="SourceGraphic" in2="effect1_dropShadow_744_513" result="shape"/>
</filter>
</defs>
</svg>
